<svg width="14" height="14" viewBox="0 0 14 14" fill="none" xmlns="http://www.w3.org/2000/svg">
<path id="Star 1" d="M6.08097 1.15558C6.40377 0.564909 7.25205 0.564908 7.57485 1.15558L8.49645 2.84198C8.67135 3.16202 9.03069 3.33507 9.38996 3.27227L11.283 2.94136C11.9461 2.82545 12.475 3.48867 12.2145 4.10932L11.4706 5.88131C11.3294 6.21759 11.4182 6.60643 11.6913 6.84816L13.1303 8.12192C13.6343 8.56806 13.4456 9.39507 12.7979 9.57834L10.9487 10.1016C10.5978 10.2009 10.3491 10.5127 10.3304 10.8769L10.2317 12.7962C10.1972 13.4684 9.43292 13.8365 8.8858 13.4444L7.32377 12.3248C7.02733 12.1124 6.62848 12.1124 6.33205 12.3248L4.77001 13.4444C4.2229 13.8365 3.45862 13.4684 3.42408 12.7962L3.32544 10.8769C3.30673 10.5127 3.05805 10.2009 2.70712 10.1016L0.857922 9.57834C0.210229 9.39507 0.021467 8.56806 0.525502 8.12192L1.96455 6.84816C2.23764 6.60644 2.32639 6.21759 2.18522 5.88131L1.44135 4.10932C1.18081 3.48867 1.7097 2.82545 2.37277 2.94136L4.26586 3.27227C4.62512 3.33507 4.98447 3.16202 5.15937 2.84198L6.08097 1.15558Z" fill="#149BFC"/>
</svg>
